<svg width="49" height="40" viewBox="0 0 49 40" fill="none" xmlns="http://www.w3.org/2000/svg">
<path d="M42.2168 7.68444C41.778 7.24302 41.1207 7 40.3659 7C39.9556 7 39.5209 7.07101 39.0742 7.21146L8.66493 16.7595C7.05114 17.2661 6.83379 18.0263 6.84777 18.4343C6.86175 18.8424 7.13117 19.5913 8.7773 20.0221C8.78717 20.0246 8.79703 20.0271 8.8069 20.0293L15.1146 21.5141L18.5258 29.5375C18.9909 30.6314 20.0349 31.3108 21.2507 31.3108C22.0173 31.3108 22.7713 31.0466 23.4313 30.547L27.3328 27.5922L32.9918 31.3401L32.9937 31.3413L33.0474 31.3769C33.0523 31.38 33.0575 31.3834 33.0625 31.3866C33.6915 31.7879 34.3781 31.9998 35.0487 32C36.3591 32 37.4028 31.2022 37.7068 29.9677L42.6893 9.73121C42.8894 8.91895 42.7216 8.19213 42.2168 7.68444ZM17.2247 21.2321L29.3942 16.1184L21.8167 22.7412C21.6925 22.8496 21.6045 22.9824 21.5612 23.1269L20.1001 27.9951L17.2247 21.2321ZM22.0052 29.2733C21.9548 29.3114 21.9041 29.3454 21.8534 29.3768L23.209 24.8608L25.6749 26.4941L22.0052 29.2733ZM40.6263 9.38741L35.6438 29.6241C35.5958 29.8177 35.4426 30.2684 35.0487 30.2684C34.8541 30.2684 34.6097 30.1811 34.3594 30.0227L27.947 25.7758L27.944 25.774L24.1285 23.2468L35.0866 13.6694C35.4374 13.3628 35.4692 12.8932 35.1619 12.5564C34.8544 12.2196 34.2972 12.1137 33.8414 12.3053L15.8184 19.8787L9.42495 18.3742L39.8249 8.829C40.0817 8.74829 40.2609 8.73138 40.3659 8.73138C40.4303 8.73138 40.5449 8.7377 40.5874 8.78075C40.6433 8.83689 40.7145 9.02829 40.6263 9.38741Z" fill="white"/>
<rect x="0.859863" width="47.8992" height="40" rx="10" stroke="white"/>
</svg>
